Coordinates
version=1
nRows=22
nColumns=26
inDegrees=yes

Units are S.I. units (second, meters, Newtons, ...)
If the header above contains a line with 'inDegrees', this indicates whether rotational values are in degrees (yes) or radians (no).

endheader
time	pelvis_tilt	pelvis_list	pelvis_rotation	pelvis_tx	pelvis_ty	pelvis_tz	hip_flexion_r	hip_adduction_r	hip_rotation_r	knee_angle_r	knee_angle_r_beta	ankle_angle_r	subtalar_angle_r	mtp_angle_r	hip_flexion_l	hip_adduction_l	hip_rotation_l	knee_angle_l	knee_angle_l_beta	ankle_angle_l	subtalar_angle_l	mtp_angle_l	lumbar_extension	lumbar_bending	lumbar_rotation
      0.00500000	    -10.32998511	      4.06415283	     -4.74331579	     -0.10658017	      1.09701982	     -0.55551034	     23.70851308	    -15.35284029	    -14.76832246	     32.49128447	      0.56707989	     -4.17851130	      0.00000000	      0.00000000	     17.09804877	     -4.00328868	    -15.08746903	     25.55592004	      0.44603495	      2.88804357	      0.00000000	      0.00000000	      2.96599543	     -4.85899179	      2.36271203
      0.01000000	    -10.49710866	      4.11309662	     -4.66453868	     -0.10769039	      1.09603748	     -0.55524409	     24.07902338	    -15.33774980	    -14.42342485	     32.79380238	      0.57235983	     -4.10195833	      0.00000000	      0.00000000	     17.56270486	     -4.01846089	    -14.70898204	     26.10148347	      0.45555683	      2.82554709	      0.00000000	      0.00000000	      2.94958508	     -4.99678276	      2.26120199
      0.01500000	    -10.64151719	      4.20674200	     -4.55552830	     -0.10879489	      1.09478906	     -0.55499492	     24.44796653	    -15.40280318	    -14.13848521	     33.14232135	      0.57844263	     -4.09667211	      0.00000000	      0.00000000	     17.98985429	     -3.96702047	    -14.30991911	     26.60045435	      0.46426551	      2.70614556	      0.00000000	      0.00000000	      2.91714761	     -5.19830071	      2.14046928
      0.02000000	    -10.78913265	      4.30506095	     -4.44018596	     -0.10990527	      1.09345816	     -0.55475340	     24.82439539	    -15.47719611	    -13.85944888	     33.49912644	      0.58467005	     -4.10739194	      0.00000000	      0.00000000	     18.42146992	     -3.90556201	    -13.90611275	     27.09574362	      0.47290994	      2.57004799	      0.00000000	      0.00000000	      2.88614208	     -5.40532758	      2.01564652
      0.02500000	    -10.93491192	      4.42711704	     -4.30769108	     -0.11102388	      1.09188543	     -0.55452449	     25.21734569	    -15.59532886	    -13.60734907	     33.89102734	      0.59151001	     -4.16298436	      0.00000000	      0.00000000	     18.84902135	     -3.80994723	    -13.49588728	     27.57474610	      0.48127011	      2.39971164	      0.00000000	      0.00000000	      2.85519239	     -5.64432639	      1.88133258
      0.03000000	    -11.07938025	      4.56119545	     -4.16778825	     -0.11213794	      1.09009591	     -0.55430348	     25.62043787	    -15.73705950	    -13.36985234	     34.30611265	      0.59875462	     -4.26038949	      0.00000000	      0.00000000	     19.27212248	     -3.69750653	    -13.09498402	     28.04228638	      0.48943023	      2.21126101	      0.00000000	      0.00000000	      2.82336188	     -5.89852688	      1.74597912
      0.03500000	    -11.24176233	      4.70575941	     -4.02304655	     -0.11327805	      1.08801531	     -0.55409695	     26.06780430	    -15.90026116	    -13.13443493	     34.76501828	      0.60676403	     -4.39115463	      0.00000000	      0.00000000	     19.71957657	     -3.57294890	    -12.69872290	     28.51389789	      0.49766140	      2.00411019	      0.00000000	      0.00000000	      2.80970127	     -6.16238220	      1.61362910
      0.04000000	    -11.42286474	      4.85180777	     -3.88003739	     -0.11443287	      1.08564535	     -0.55390552	     26.55617129	    -16.07060036	    -12.89508274	     35.26197275	      0.61543753	     -4.54833009	      0.00000000	      0.00000000	     20.19086079	     -3.44892483	    -12.31818924	     28.99196118	      0.50600518	      1.79626623	      0.00000000	      0.00000000	      2.81589482	     -6.42313588	      1.48781880
      0.04500000	    -11.62104376	      4.99798466	     -3.74327756	     -0.11559771	      1.08297655	     -0.55372892	     27.08682243	    -16.24638645	    -12.65041498	     35.80310507	      0.62488207	     -4.71565922	      0.00000000	      0.00000000	     20.68215279	     -3.32735466	    -11.95898377	     29.47547202	      0.51444404	      1.59560402	      0.00000000	      0.00000000	      2.84220933	     -6.67833396	      1.37505128
      0.05000000	    -11.83423453	      5.13802302	     -3.61308639	     -0.11676973	      1.08001078	     -0.55357655	     27.65284089	    -16.42026787	    -12.40276154	     36.38227209	      0.63499044	     -4.89904464	      0.00000000	      0.00000000	     21.19184156	     -3.21439580	    -11.61817279	     29.96652051	      0.52301445	      1.39953172	      0.00000000	      0.00000000	      2.88643741	     -6.91940232	      1.27465631
      0.05500000	    -12.06353149	      5.26847278	     -3.49282524	     -0.11794931	      1.07673588	     -0.55344679	     28.25540121	    -16.58647368	    -12.14807625	     36.99952516	      0.64576354	     -5.08846333	      0.00000000	      0.00000000	     21.72349769	     -3.11630948	    -11.30028094	     30.47022163	      0.53180569	      1.20550072	      0.00000000	      0.00000000	      2.94963921	     -7.14116359	      1.18943994
      0.06000000	    -12.29967881	      5.38445112	     -3.37970665	     -0.11912191	      1.07317366	     -0.55334229	     28.87424459	    -16.73982783	    -11.89641794	     37.64149142	      0.65696796	     -5.28425772	      0.00000000	      0.00000000	     22.26659741	     -3.03620422	    -11.00308240	     30.98580147	      0.54080426	      1.01568805	      0.00000000	      0.00000000	      3.02149858	     -7.33903605	      1.11499602
      0.06500000	    -12.53956373	      5.48749504	     -3.27538205	     -0.12028633	      1.06932261	     -0.55325973	     29.50617841	    -16.88236474	    -11.64810438	     38.30843538	      0.66860833	     -5.48671011	      0.00000000	      0.00000000	     22.81903081	     -2.97403651	    -10.72972974	     31.51634463	      0.55006398	      0.81414298	      0.00000000	      0.00000000	      3.09747503	     -7.51435442	      1.05263888
      0.07000000	    -12.77960626	      5.57459129	     -3.18093126	     -0.12144234	      1.06518878	     -0.55319645	     30.14137218	    -17.00703395	    -11.39945942	     38.98864169	      0.68048017	     -5.70528105	      0.00000000	      0.00000000	     23.37892750	     -2.93418606	    -10.48122782	     32.06562434	      0.55965072	      0.60713937	      0.00000000	      0.00000000	      3.17224755	     -7.66397834	      0.99916750
      0.07500000	    -13.02487128	      5.64814126	     -3.09335664	     -0.12259713	      1.06076528	     -0.55315409	     30.78665121	    -17.11712286	    -11.15159635	     39.68522599	      0.69263786	     -5.93592895	      0.00000000	      0.00000000	     23.95656605	     -2.91267577	    -10.25144233	     32.64305707	      0.56972882	      0.42541832	      0.00000000	      0.00000000	      3.25021410	     -7.79056163	      0.95053886
      0.08000000	    -13.27569727	      5.70679617	     -3.01054415	     -0.12376128	      1.05605395	     -0.55313466	     31.44153764	    -17.21020382	    -10.90246685	     40.39672102	      0.70505579	     -6.16672478	      0.00000000	      0.00000000	     24.55544789	     -2.90941593	    -10.03069661	     33.25816413	      0.58046447	      0.35552373	      0.00000000	      0.00000000	      3.33131792	     -7.89356000	      0.90465528
      0.08500000	    -13.53460001	      5.75246787	     -2.92985255	     -0.12494337	      1.05104932	     -0.55313766	     32.10848644	    -17.28726404	    -10.64921914	     41.12319822	      0.71773521	     -6.37307691	      0.00000000	      0.00000000	     25.17852645	     -2.92068228	     -9.80676529	     33.91513511	      0.59193077	      0.49931034	      0.00000000	      0.00000000	      3.41878395	     -7.97657519	      0.85980079
      0.09000000	    -13.80602642	      5.78226853	     -2.85251361	     -0.12616237	      1.04574621	     -0.55315859	     32.79386595	    -17.33928546	    -10.38052887	     41.86707662	      0.73071834	     -6.46097430	      0.00000000	      0.00000000	     25.83539783	     -2.95102532	     -9.57376105	     34.62892761	      0.60438880	      0.95191682	      0.00000000	      0.00000000	      3.51661147	     -8.03691109	      0.81641337
      0.09500000	    -14.08761350	      5.79846065	     -2.78155949	     -0.12742343	      1.04014785	     -0.55318928	     33.49895808	    -17.36778334	    -10.08904180	     42.63576478	      0.74413447	     -6.29989874	      0.00000000	      0.00000000	     26.52527228	     -3.00006365	     -9.33633716	     35.41416083	      0.61809371	      1.76777100	      0.00000000	      0.00000000	      3.62309395	     -8.07807187	      0.77937821
      0.10000000	    -14.36712435	      5.80358464	     -2.72655705	     -0.12871781	      1.03427645	     -0.55321070	     34.21223336	    -17.37036196	     -9.76383854	     43.42867928	      0.75797344	     -5.78468275	      0.00000000	      0.00000000	     27.22658112	     -3.07027636	     -9.10638548	     36.26792572	      0.63299472	      2.94285883	      0.00000000	      0.00000000	      3.72533921	     -8.10354678	      0.75722960
      0.10500000	    -14.63941354	      5.80073276	     -2.68852171	     -0.13003667	      1.02814858	     -0.55320806	     34.92604434	    -17.34866301	     -9.40463614	     44.24366064	      0.77219755	     -4.86723541	      0.00000000	      0.00000000	     27.93338749	     -3.15986758	     -8.89140445	     37.19320007	      0.64914380	      4.37713718	      0.00000000	      0.00000000	      3.81724588	     -8.11853742	      0.74908194
      0.11000000	    -14.90208300	      5.80011668	     -2.66170112	     -0.13138170	      1.02178287	     -0.55317856	     35.64171415	    -17.31656760	     -9.01120648	     45.08952556	      0.78696068	     -3.53769382	      0.00000000	      0.00000000	     28.65056307	     -3.25653611	     -8.69991912	     38.19932325	      0.66670396	      5.94191883	      0.00000000	      0.00000000	      3.89409526	     -8.13679260	      0.74925202
